<svg id="Layer_1" data-name="Layer 1" xmlns="http://www.w3.org/2000/svg" viewBox="0 0 308.6 71.41"><defs><style>.cls-1{fill:#896b25;}</style></defs><title>Artboard 6</title><path id="_Compound_Path_" data-name="&lt;Compound Path&gt;" d="M13.71,4.48c-2.14,0-4.39.11-4.81.11-.18,0-2.42-.11-4-.11-.39,0-.57.08-.57.29s.14.21.29.21a6.81,6.81,0,0,1,1.21.11c1.17.25,1.46.82,1.53,2s.07,2.14.07,7.69v6.27c0,3.42,0,6.23-.18,7.73-.14,1-.32,1.82-1,2a5.61,5.61,0,0,1-1.07.14c-.21,0-.28.11-.28.22s.17.28.57.28,1.35-.07,2.06-.07,1.36,0,1.43,0,1.39.11,2.95.22,3.42.21,5,.21c6.06,0,9.27-2.49,10.8-4.09a14.61,14.61,0,0,0,3.84-10,12.75,12.75,0,0,0-3.45-9C23.75,4.16,17.23,4.48,13.71,4.48ZM25.39,27.21a12,12,0,0,1-8.48,3.31c-4.2,0-5.59-.75-6.05-1.42a7.79,7.79,0,0,1-.4-2.71c0-.68-.07-4-.07-7.73V14.24c0-2.74,0-6.37,0-7.58a.66.66,0,0,1,.43-.72,9.65,9.65,0,0,1,2.31-.24c4.24,0,8.3.49,11.65,4a12.74,12.74,0,0,1,3.42,9C28.24,22,27.24,25.39,25.39,27.21ZM56.52,31a4,4,0,0,1-1.26-.19c-.66-.19-1.57-.69-2.7-3.49-1.92-4.78-6.85-17.77-7.33-19-.37-1-.5-1.13-.69-1.13s-.31.18-.69,1.22L36.71,27.94c-.56,1.57-1.19,2.77-2.64,3-.25,0-.69.06-.91.06s-.28.06-.28.19.19.25.59.25c1.48,0,3.21-.1,3.56-.1s1.7.1,2.45.1c.28,0,.47-.07.47-.25s-.09-.19-.31-.19h-.32c-.53,0-1.19-.28-1.19-.91a6.74,6.74,0,0,1,.44-2.11l1.88-5.57c.07-.15.16-.25.32-.25h6.76a.26.26,0,0,1,.28.19l2.93,7.74c.19.5,0,.78-.19.85s-.22.09-.22.22.34.18.94.21c2.17.07,4.47.07,4.94.07s.63-.07.63-.25S56.71,31,56.52,31Zm-9.4-10h-6c-.1,0-.16-.06-.1-.22l2.77-8.49c.15-.47.31-.47.47,0l3,8.49C47.28,20.9,47.28,21,47.12,21ZM75.9,7.81c0,.16-.16.26-.41.26A2.92,2.92,0,0,0,74,8.51a6,6,0,0,0-1.67,1.6,101,101,0,0,0-6,10,7.54,7.54,0,0,0-.47,3.14V26c0,.5,0,1.82.09,3.14.06.91.35,1.61,1.29,1.73A12,12,0,0,0,68.7,31c.18,0,.25.09.25.19s-.16.25-.51.25c-1.73,0-3.71-.1-3.86-.1s-2.14.1-3.09.1c-.34,0-.5-.07-.5-.25s.06-.19.25-.19a4.43,4.43,0,0,0,.95-.13c.62-.12.91-.82,1-1.73.09-1.32.09-2.64.09-3.14V23.25a6.67,6.67,0,0,0-.72-3.3c-.22-.5-4.43-7.42-5.53-9a8.76,8.76,0,0,0-2.14-2.33,2.93,2.93,0,0,0-1.35-.5c-.16,0-.32-.07-.32-.22s.13-.22.41-.22c.6,0,3,.09,3.11.09s1.42-.09,2.65-.09c.34,0,.4.09.4.22s-.18.15-.47.28a.63.63,0,0,0-.41.57,2.7,2.7,0,0,0,.41,1.22c.51.91,5.22,9,5.79,9.94.6-1.32,4.59-8.21,5.22-9.25A3,3,0,0,0,70.83,9c0-.44-.12-.79-.5-.88s-.47-.16-.47-.32.19-.18.5-.18c.82,0,1.82.09,2.08.09s2.45-.09,3-.09C75.71,7.63,75.9,7.69,75.9,7.81Zm31.57,23.34c0,.18-.28.28-.66.28-.69,0-4.09,0-5.25-.13-.73-.06-.88-.15-.88-.31s.06-.19.22-.22.19-.57.12-1.13L99.51,13.32h-.09l-7.7,16.35c-.67,1.38-.76,1.66-1,1.66s-.38-.31-1-1.44c-.81-1.54-3.52-7-3.68-7.3-.28-.56-3.8-8.11-4.15-9h-.12L80.49,28.22c0,.51,0,1.07,0,1.61a1,1,0,0,0,.82,1,5.49,5.49,0,0,0,1.19.16c.13,0,.25.06.25.16s-.19.28-.56.28c-1.17,0-2.68-.1-2.93-.1s-1.79.1-2.64.1c-.31,0-.53-.07-.53-.28s.15-.16.31-.16a3.8,3.8,0,0,0,.94-.1c1-.18,1.14-1.41,1.26-2.61l2.27-20.5c0-.34.15-.56.34-.56s.32.12.47.47l9.62,19.78,9.25-19.75c.12-.28.25-.5.47-.5s.32.25.38.84l2.1,19.34c.13,1.14.35,2.9,1.7,3.34a6.9,6.9,0,0,0,2,.28C107.37,31,107.47,31,107.47,31.15Zm14.44-24c-8.68,0-12.39,7.2-12.39,12.29,0,5.66,3.58,12.36,12.2,12.36,7.58,0,12.54-5.82,12.54-12.86C134.26,11.65,129,7.19,121.91,7.19Zm.66,23.45c-5.66,0-10.07-4.71-10.07-12,0-6.89,3.93-10.35,9.19-10.35,5,0,9.56,4.06,9.56,11.61C131.25,29,125.4,30.64,122.57,30.64ZM162.69,7.85c0,.12-.12.22-.34.22a2.93,2.93,0,0,0-.76.09c-1,.22-1.16.91-1.16,2.8l-.06,18.43c0,2.07-.07,2.23-.29,2.23s-.63-.35-2.29-2c-.35-.32-4.88-4.94-8.21-8.53-3.65-3.93-7.2-7.89-8.21-9l.41,15.06c.06,2.58.38,3.4,1.23,3.65a6.77,6.77,0,0,0,1.57.19c.16,0,.25.06.25.19s-.19.25-.56.25c-1.8,0-3.05-.1-3.34-.1s-1.6.1-3,.1c-.31,0-.5,0-.5-.25s.1-.19.25-.19a4.43,4.43,0,0,0,1.29-.19c.79-.22,1-1.13,1-4l0-18c0-1.23.09-1.57.34-1.57s.79.69,1.1,1c.47.54,5.16,5.6,10,10.79,3.12,3.33,6.54,7.17,7.55,8.2l-.35-16c0-2-.25-2.73-1.22-3a8.81,8.81,0,0,0-1.54-.15c-.22,0-.26-.1-.26-.22s.26-.22.63-.22c1.42,0,2.93.09,3.27.09s1.39-.09,2.68-.09C162.47,7.63,162.69,7.66,162.69,7.85Zm13.59-.22c-1.89,0-3.87.09-4.24.09-.16,0-2.14-.09-3.56-.09-.34,0-.5.06-.5.25s.12.19.25.19a6.18,6.18,0,0,1,1.07.09c1,.22,1.29.72,1.35,1.79s.06,1.89.06,6.79v5.54c0,3,0,5.5-.15,6.82-.13.91-.29,1.61-.91,1.73a4.43,4.43,0,0,1-1,.13c-.19,0-.25.09-.25.19s.16.25.5.25,1.2-.07,1.83-.07,1.19,0,1.26,0,1.22.1,2.61.19,3,.19,4.37.19c5.34,0,8.17-2.2,9.52-3.61a12.83,12.83,0,0,0,3.4-8.87,11.27,11.27,0,0,0-3.05-8C185.15,7.34,179.39,7.63,176.28,7.63Zm10.31,20.06a10.54,10.54,0,0,1-7.48,2.92c-3.71,0-4.94-.66-5.35-1.26a6.85,6.85,0,0,1-.34-2.39c0-.59-.06-3.49-.06-6.82v-3.9c0-2.42,0-5.63,0-6.7a.56.56,0,0,1,.37-.62,8.29,8.29,0,0,1,2.05-.22c3.74,0,7.33.44,10.28,3.55a11.24,11.24,0,0,1,3,7.92C189.11,23.07,188.23,26.08,186.59,27.69ZM216.07,4.77c0,.14-.14.21-.28.21a5.4,5.4,0,0,0-.89.11c-1,.18-1.25.78-1.32,2s-.07,2.14-.07,7.69v8.55c0,5.77,0,8-1.07,10.51-.75,1.78-2.32,3.45-5.2,5.45a14.13,14.13,0,0,1-1.39.89.57.57,0,0,1-.25.07.23.23,0,0,1-.25-.21c0-.22.18-.33.5-.54a6.94,6.94,0,0,0,1.25-1c2.31-2.35,3.42-4.23,3.42-13.42V14.81c0-5.55,0-6.55-.07-7.69s-.36-1.78-1.54-2A6.72,6.72,0,0,0,207.7,5c-.14,0-.28-.07-.28-.21s.18-.29.57-.29c1.6,0,3.84.11,4,.11s2.42-.11,3.49-.11C215.89,4.48,216.07,4.56,216.07,4.77Zm17.26,2.42c-8.68,0-12.39,7.2-12.39,12.29,0,5.66,3.58,12.36,12.2,12.36,7.58,0,12.54-5.82,12.54-12.86C245.68,11.65,240.4,7.19,233.33,7.19ZM234,30.64c-5.66,0-10.07-4.71-10.07-12,0-6.89,3.93-10.35,9.19-10.35,5,0,9.55,4.06,9.55,11.61C242.66,29,236.82,30.64,234,30.64Zm40.41.51c0,.15-.16.25-.51.25-1.73,0-3.71-.1-3.87-.1s-2.13.1-3.08.1c-.34,0-.5-.07-.5-.25s.06-.19.25-.19a4.52,4.52,0,0,0,.95-.13c.62-.12.78-.82.91-1.73.15-1.32.15-3.8.15-6.82V19a.18.18,0,0,0-.18-.19H255.18A.17.17,0,0,0,255,19v3.3c0,3,0,5.5.16,6.82.1.91.28,1.61,1.23,1.73a12.07,12.07,0,0,0,1.41.13c.19,0,.25.09.25.19s-.15.25-.5.25c-1.73,0-3.71-.1-3.87-.1s-2.13.1-3.08.1c-.34,0-.5-.07-.5-.25s.06-.19.25-.19a4.34,4.34,0,0,0,.94-.13c.63-.12.79-.82.92-1.73.15-1.32.15-3.8.15-6.82V16.74c0-4.9,0-5.78-.06-6.79s-.31-1.57-1.35-1.79a6.18,6.18,0,0,0-1.07-.09c-.13,0-.25-.07-.25-.19s.15-.25.5-.25c1.42,0,3.4.09,3.55.09s2.14-.09,3.09-.09c.34,0,.5.06.5.25s-.13.19-.25.19a5,5,0,0,0-.79.09c-.85.16-1.1.69-1.16,1.79s-.07,1.89-.07,6.79v.67c0,.15.1.18.19.18h13.34a.16.16,0,0,0,.18-.18v-.67c0-4.9,0-5.78-.06-6.79s-.31-1.57-1.35-1.79a6.18,6.18,0,0,0-1.07-.09c-.13,0-.25-.07-.25-.19s.16-.25.5-.25c1.42,0,3.4.09,3.55.09s2.14-.09,3.09-.09c.34,0,.5.06.5.25s-.13.19-.25.19a5,5,0,0,0-.79.09c-.85.16-1.1.69-1.16,1.79s-.07,1.89-.07,6.79v5.54c0,3,0,5.5.16,6.82.1.91.29,1.61,1.23,1.73a12.07,12.07,0,0,0,1.41.13C274.33,31,274.4,31.05,274.4,31.15Zm29.9-23.3c0,.12-.12.22-.34.22a2.93,2.93,0,0,0-.76.09c-1,.22-1.16.91-1.16,2.8L302,29.39c0,2.07-.07,2.23-.29,2.23s-.63-.35-2.29-2c-.35-.32-4.88-4.94-8.21-8.53-3.65-3.93-7.2-7.89-8.21-9l.41,15.06c.06,2.58.38,3.4,1.23,3.65a6.77,6.77,0,0,0,1.57.19c.16,0,.25.06.25.19s-.19.25-.56.25c-1.8,0-3.05-.1-3.34-.1s-1.6.1-3,.1c-.31,0-.5,0-.5-.25s.1-.19.25-.19a4.43,4.43,0,0,0,1.29-.19c.79-.22.94-1.13.94-4l0-18c0-1.23.09-1.57.34-1.57s.79.69,1.1,1c.47.54,5.16,5.6,10,10.79,3.12,3.33,6.54,7.17,7.55,8.2l-.35-16c0-2-.25-2.73-1.22-3a8.81,8.81,0,0,0-1.54-.15c-.22,0-.26-.1-.26-.22s.26-.22.63-.22c1.42,0,2.93.09,3.27.09s1.39-.09,2.68-.09C304.08,7.63,304.3,7.66,304.3,7.85Z"/><path class="cls-1" d="M155.92,46.68a6.76,6.76,0,0,1-4.24-3.78v4.56H67.15v.79h80.6A6.7,6.7,0,0,1,152,52V47.46h84.53v-.78Z"/><path class="cls-1" d="M60.19,60.93H58v-.69h5.16v.69H60.93v5.89h-.74Zm9.24-.69h.74v2.92H74V60.24h.74v6.58H74v-3h-3.8v3h-.74Zm12,0h4.75v.67h-4v2.26h3.59v.67H82.2v2.31h4.06v.67h-4.8Zm18.89,0h2.46a3.52,3.52,0,0,1,1,.14,2.24,2.24,0,0,1,.78.42,1.67,1.67,0,0,1,.5.65,2.07,2.07,0,0,1,.18.88h0a2,2,0,0,1-.21.94,2,2,0,0,1-.56.67,2.53,2.53,0,0,1-.82.41,3.66,3.66,0,0,1-1,.14h-1.6v2.32h-.74Zm2.37,3.59a2.45,2.45,0,0,0,.74-.1,1.68,1.68,0,0,0,.58-.3,1.26,1.26,0,0,0,.49-1v0a1.26,1.26,0,0,0-.48-1.07,2.12,2.12,0,0,0-1.29-.36h-1.67v2.9Zm8.8-3.59h4.75v.67h-4v2.26h3.59v.67h-3.59v2.31h4.06v.67h-4.8Zm14.24,6.69a3.38,3.38,0,0,1-1.37-.27,3.32,3.32,0,0,1-1.06-.74,3.36,3.36,0,0,1-.68-1.08,3.52,3.52,0,0,1-.24-1.29v0a3.61,3.61,0,0,1,.24-1.3,3.56,3.56,0,0,1,.69-1.08,3.51,3.51,0,0,1,1.06-.75,3.43,3.43,0,0,1,1.38-.27,3.34,3.34,0,0,1,1.36.27,3.21,3.21,0,0,1,1.06.74,3.36,3.36,0,0,1,.68,1.08,3.52,3.52,0,0,1,.24,1.29s0,0,0,0a3.61,3.61,0,0,1-.24,1.3,3.38,3.38,0,0,1-.69,1.08,3.32,3.32,0,0,1-2.43,1Zm0-.68a2.6,2.6,0,0,0,1.85-.79,2.89,2.89,0,0,0,.53-.86,2.84,2.84,0,0,0,.19-1v0a2.85,2.85,0,0,0-.19-1.06,2.73,2.73,0,0,0-.54-.86,2.65,2.65,0,0,0-.82-.58,2.43,2.43,0,0,0-1-.22,2.51,2.51,0,0,0-1,.21,2.7,2.7,0,0,0-.82.58,2.89,2.89,0,0,0-.53.86,3,3,0,0,0-.19,1v0a3.11,3.11,0,0,0,.19,1.06,2.73,2.73,0,0,0,.54.86,2.88,2.88,0,0,0,.83.58A2.51,2.51,0,0,0,125.78,66.25Zm9.8-6H138a3.52,3.52,0,0,1,1,.14,2.24,2.24,0,0,1,.78.42,1.77,1.77,0,0,1,.5.65,2.06,2.06,0,0,1,.17.88h0a2,2,0,0,1-.2.94,2,2,0,0,1-.56.67,2.53,2.53,0,0,1-.82.41,3.66,3.66,0,0,1-1,.14h-1.6v2.32h-.74ZM138,63.83a2.45,2.45,0,0,0,.74-.1,1.77,1.77,0,0,0,.58-.3,1.23,1.23,0,0,0,.36-.46,1.25,1.25,0,0,0,.13-.59v0a1.26,1.26,0,0,0-.48-1.07,2.14,2.14,0,0,0-1.29-.36h-1.67v2.9Zm8.79-3.59h.75v5.89h3.7v.69h-4.45Zm10.71,0h4.76v.67h-4v2.26h3.59v.67h-3.59v2.31h4.06v.67h-4.8ZM167.81,62a1,1,0,0,0,.51-.32.66.66,0,0,0,.12-.49h-.34v-1H169v.85a1.26,1.26,0,0,1-.25.86,1.39,1.39,0,0,1-.79.42Zm9.34,4.87a3.73,3.73,0,0,1-1.44-.26,4,4,0,0,1-1.25-.79l.46-.55A3.77,3.77,0,0,0,176,66a2.87,2.87,0,0,0,1.21.24,1.7,1.7,0,0,0,1.07-.32,1,1,0,0,0,.4-.8v0a1.07,1.07,0,0,0-.08-.41.88.88,0,0,0-.26-.33,1.85,1.85,0,0,0-.53-.28,5.87,5.87,0,0,0-.85-.23,7.39,7.39,0,0,1-1-.28,2.72,2.72,0,0,1-.7-.39,1.46,1.46,0,0,1-.4-.53,1.68,1.68,0,0,1-.13-.7v0a1.64,1.64,0,0,1,.61-1.28,2.14,2.14,0,0,1,.68-.38,2.73,2.73,0,0,1,.87-.13,3.47,3.47,0,0,1,1.26.2,3.73,3.73,0,0,1,1.05.6l-.43.58a3.24,3.24,0,0,0-.93-.55,2.87,2.87,0,0,0-1-.17,1.53,1.53,0,0,0-1,.31.9.9,0,0,0-.38.75v0a1.09,1.09,0,0,0,.07.42.88.88,0,0,0,.28.34,1.93,1.93,0,0,0,.54.28,5.17,5.17,0,0,0,.9.24,3.84,3.84,0,0,1,1.62.68,1.47,1.47,0,0,1,.52,1.18v0a1.77,1.77,0,0,1-.17.77,1.62,1.62,0,0,1-.46.58,2,2,0,0,1-.71.38A2.84,2.84,0,0,1,177.15,66.91Zm18.61,0a3.73,3.73,0,0,1-1.44-.26,4,4,0,0,1-1.25-.79l.46-.55a3.77,3.77,0,0,0,1.05.7,2.87,2.87,0,0,0,1.21.24,1.7,1.7,0,0,0,1.07-.32,1,1,0,0,0,.4-.8v0a1.07,1.07,0,0,0-.08-.41.88.88,0,0,0-.26-.33,1.85,1.85,0,0,0-.53-.28,5.87,5.87,0,0,0-.85-.23,7.39,7.39,0,0,1-1-.28,2.72,2.72,0,0,1-.7-.39,1.46,1.46,0,0,1-.4-.53,1.68,1.68,0,0,1-.13-.7v0a1.64,1.64,0,0,1,.61-1.28,2.14,2.14,0,0,1,.68-.38,2.73,2.73,0,0,1,.87-.13,3.47,3.47,0,0,1,1.26.2,3.73,3.73,0,0,1,1.05.6l-.43.58a3.24,3.24,0,0,0-.93-.55,2.87,2.87,0,0,0-1-.17,1.53,1.53,0,0,0-1,.31.9.9,0,0,0-.38.75v0a1.09,1.09,0,0,0,.07.42.88.88,0,0,0,.28.34,1.93,1.93,0,0,0,.54.28,5.17,5.17,0,0,0,.9.24,3.84,3.84,0,0,1,1.62.68A1.47,1.47,0,0,1,198,65v0a1.77,1.77,0,0,1-.17.77,1.62,1.62,0,0,1-.46.58,2,2,0,0,1-.71.38A2.84,2.84,0,0,1,195.76,66.91Zm8.64-6.67h.74v2.92h3.8V60.24h.74v6.58h-.74v-3h-3.8v3h-.74Zm14.46-.05h.7l3,6.63h-.8L221,65.08h-3.58l-.78,1.74h-.76Zm1.84,4.22-1.5-3.35-1.5,3.35Zm8-4.17h2.83a3.33,3.33,0,0,1,1.09.17,2.12,2.12,0,0,1,.78.49,1.59,1.59,0,0,1,.38.57,1.88,1.88,0,0,1,.13.72v0a1.92,1.92,0,0,1-.13.74,1.66,1.66,0,0,1-.37.56,2,2,0,0,1-.57.4,2.75,2.75,0,0,1-.72.22l2,2.69h-.92l-1.9-2.56h-1.88v2.56h-.75Zm2.77,3.35a2.43,2.43,0,0,0,.68-.09,1.52,1.52,0,0,0,.54-.27,1.1,1.1,0,0,0,.35-.42,1.2,1.2,0,0,0,.13-.57v0a1.12,1.12,0,0,0-.45-.95,2,2,0,0,0-1.24-.34h-2v2.66Zm8.92-3.35h.74v3.93L245,60.24h1l-2.82,2.88,2.94,3.7h-.93l-2.53-3.19-1.4,1.42v1.77h-.74Z"/></svg>