<?xml version="1.0" encoding="utf-8"?>
<!-- Generator: Adobe Illustrator 22.1.0, SVG Export Plug-In . SVG Version: 6.00 Build 0)  -->
<svg version="1.1" id="Layer_1" xmlns="http://www.w3.org/2000/svg" xmlns:xlink="http://www.w3.org/1999/xlink" x="0px" y="0px"
	 viewBox="0 0 308.6 71.4" style="enable-background:new 0 0 308.6 71.4;" xml:space="preserve">
<style type="text/css">
	.st0{display:none;fill:none;stroke:#000000;stroke-linecap:round;stroke-linejoin:round;stroke-miterlimit:10;}
	.st1{fill:#896B25;}
</style>
<line class="st0" x1="1564.1" y1="450.4" x2="1577.5" y2="450.4"/>
<g>
	<path id="XMLID_67_" d="M13.7,4.5c-2.1,0-4.4,0.1-4.8,0.1c-0.2,0-2.4-0.1-4-0.1c-0.4,0-0.6,0.1-0.6,0.3C4.3,4.9,4.4,5,4.6,5
		c0.3,0,0.9,0,1.2,0.1c1.2,0.2,1.5,0.8,1.5,2c0.1,1.1,0.1,2.1,0.1,7.7v6.3c0,3.4,0,6.2-0.2,7.7c-0.1,1-0.3,1.8-1,2
		c-0.3,0.1-0.7,0.1-1.1,0.1c-0.2,0-0.3,0.1-0.3,0.2c0,0.2,0.2,0.3,0.6,0.3c0.5,0,1.4-0.1,2.1-0.1c0.7,0,1.4,0,1.4,0
		c0.2,0,1.4,0.1,3,0.2c1.5,0.1,3.4,0.2,5,0.2c6.1,0,9.3-2.5,10.8-4.1c2-2.1,3.8-5.6,3.8-10c0-4.2-1.7-7.2-3.5-9
		C23.7,4.2,17.2,4.5,13.7,4.5z M25.4,27.2c-2.1,2.1-5.2,3.3-8.5,3.3c-4.2,0-5.6-0.7-6.1-1.4c-0.3-0.4-0.4-1.8-0.4-2.7
		c0-0.7-0.1-4-0.1-7.7v-4.4c0-2.7,0-6.4,0-7.6c0-0.4,0.1-0.6,0.4-0.7c0.3-0.1,1.6-0.2,2.3-0.2c4.2,0,8.3,0.5,11.6,4
		c1.5,1.5,3.4,4.5,3.4,9C28.2,22,27.2,25.4,25.4,27.2z M56.5,31c-0.3,0-0.8,0-1.3-0.2c-0.7-0.2-1.6-0.7-2.7-3.5
		c-1.9-4.8-6.9-17.8-7.3-19c-0.4-1-0.5-1.1-0.7-1.1c-0.2,0-0.3,0.2-0.7,1.2l-7.1,19.5c-0.6,1.6-1.2,2.8-2.6,3
		c-0.3,0-0.7,0.1-0.9,0.1c-0.2,0-0.3,0.1-0.3,0.2c0,0.2,0.2,0.3,0.6,0.3c1.5,0,3.2-0.1,3.6-0.1c0.3,0,1.7,0.1,2.5,0.1
		c0.3,0,0.5-0.1,0.5-0.3c0-0.1-0.1-0.2-0.3-0.2h-0.3c-0.5,0-1.2-0.3-1.2-0.9c0-0.6,0.2-1.3,0.4-2.1l1.9-5.6c0.1-0.2,0.2-0.3,0.3-0.3
		h6.8c0.2,0,0.2,0.1,0.3,0.2l2.9,7.7c0.2,0.5,0,0.8-0.2,0.8c-0.1,0-0.2,0.1-0.2,0.2c0,0.2,0.3,0.2,0.9,0.2c2.2,0.1,4.5,0.1,4.9,0.1
		c0.3,0,0.6-0.1,0.6-0.3C56.8,31,56.7,31,56.5,31z M47.1,21h-6C41,21,41,20.9,41,20.8l2.8-8.5c0.2-0.5,0.3-0.5,0.5,0l3,8.5
		C47.3,20.9,47.3,21,47.1,21z M75.9,7.8c0,0.2-0.2,0.3-0.4,0.3c-0.3,0-0.9,0.1-1.4,0.4c-0.6,0.4-1,0.8-1.7,1.6c-1,1.3-5.4,8.6-6,10
		c-0.5,1.1-0.5,2.1-0.5,3.1V26c0,0.5,0,1.8,0.1,3.1c0.1,0.9,0.3,1.6,1.3,1.7c0.4,0.1,1.1,0.1,1.4,0.1c0.2,0,0.3,0.1,0.3,0.2
		c0,0.2-0.2,0.3-0.5,0.3c-1.7,0-3.7-0.1-3.9-0.1c-0.2,0-2.1,0.1-3.1,0.1c-0.3,0-0.5-0.1-0.5-0.3c0-0.1,0.1-0.2,0.3-0.2
		c0.3,0,0.7-0.1,0.9-0.1c0.6-0.1,0.9-0.8,1-1.7c0.1-1.3,0.1-2.6,0.1-3.1v-2.7c0-1.7-0.3-2.4-0.7-3.3c-0.2-0.5-4.4-7.4-5.5-9.1
		c-0.8-1.2-1.6-1.9-2.1-2.3c-0.5-0.3-1.1-0.5-1.4-0.5c-0.2,0-0.3-0.1-0.3-0.2c0-0.1,0.1-0.2,0.4-0.2c0.6,0,3,0.1,3.1,0.1
		c0.2,0,1.4-0.1,2.6-0.1c0.3,0,0.4,0.1,0.4,0.2c0,0.1-0.2,0.2-0.5,0.3c-0.3,0.1-0.4,0.3-0.4,0.6c0,0.4,0.2,0.8,0.4,1.2
		c0.5,0.9,5.2,9,5.8,9.9c0.6-1.3,4.6-8.2,5.2-9.2c0.4-0.7,0.5-1.2,0.5-1.6c0-0.4-0.1-0.8-0.5-0.9C70,8,69.9,8,69.9,7.8
		c0-0.1,0.2-0.2,0.5-0.2c0.8,0,1.8,0.1,2.1,0.1c0.2,0,2.5-0.1,3-0.1C75.7,7.6,75.9,7.7,75.9,7.8z M107.5,31.1c0,0.2-0.3,0.3-0.7,0.3
		c-0.7,0-4.1,0-5.3-0.1c-0.7-0.1-0.9-0.2-0.9-0.3c0-0.1,0.1-0.2,0.2-0.2c0.2,0,0.2-0.6,0.1-1.1l-1.5-16.3h-0.1l-7.7,16.4
		c-0.7,1.4-0.8,1.7-1,1.7c-0.2,0-0.4-0.3-1-1.4c-0.8-1.5-3.5-7-3.7-7.3c-0.3-0.6-3.8-8.1-4.2-9h-0.1l-1.3,14.6c0,0.5,0,1.1,0,1.6
		c0,0.5,0.3,0.9,0.8,1c0.5,0.1,1,0.2,1.2,0.2c0.1,0,0.3,0.1,0.3,0.2c0,0.2-0.2,0.3-0.6,0.3c-1.2,0-2.7-0.1-2.9-0.1
		c-0.3,0-1.8,0.1-2.6,0.1c-0.3,0-0.5-0.1-0.5-0.3c0-0.1,0.2-0.2,0.3-0.2c0.3,0,0.5,0,0.9-0.1c1-0.2,1.1-1.4,1.3-2.6l2.3-20.5
		c0-0.3,0.2-0.6,0.3-0.6c0.2,0,0.3,0.1,0.5,0.5l9.6,19.8l9.2-19.7c0.1-0.3,0.3-0.5,0.5-0.5c0.2,0,0.3,0.3,0.4,0.8l2.1,19.3
		c0.1,1.1,0.3,2.9,1.7,3.3c0.9,0.3,1.7,0.3,2,0.3C107.4,31,107.5,31,107.5,31.1z M121.9,7.2c-8.7,0-12.4,7.2-12.4,12.3
		c0,5.7,3.6,12.4,12.2,12.4c7.6,0,12.5-5.8,12.5-12.9C134.3,11.7,129,7.2,121.9,7.2z M122.6,30.6c-5.7,0-10.1-4.7-10.1-12
		c0-6.9,3.9-10.3,9.2-10.3c5,0,9.6,4.1,9.6,11.6C131.2,29,125.4,30.6,122.6,30.6z M162.7,7.8c0,0.1-0.1,0.2-0.3,0.2
		c-0.2,0-0.4,0-0.8,0.1c-1,0.2-1.2,0.9-1.2,2.8l-0.1,18.4c0,2.1-0.1,2.2-0.3,2.2c-0.3,0-0.6-0.3-2.3-2c-0.3-0.3-4.9-4.9-8.2-8.5
		c-3.6-3.9-7.2-7.9-8.2-9l0.4,15.1c0.1,2.6,0.4,3.4,1.2,3.6c0.6,0.2,1.3,0.2,1.6,0.2c0.2,0,0.3,0.1,0.3,0.2c0,0.2-0.2,0.3-0.6,0.3
		c-1.8,0-3-0.1-3.3-0.1s-1.6,0.1-3,0.1c-0.3,0-0.5,0-0.5-0.3c0-0.1,0.1-0.2,0.3-0.2c0.3,0,0.8,0,1.3-0.2c0.8-0.2,0.9-1.1,0.9-4l0-18
		c0-1.2,0.1-1.6,0.3-1.6c0.3,0,0.8,0.7,1.1,1c0.5,0.5,5.2,5.6,10,10.8c3.1,3.3,6.5,7.2,7.5,8.2l-0.3-16c0-2-0.3-2.7-1.2-3
		c-0.6-0.1-1.3-0.2-1.5-0.2c-0.2,0-0.3-0.1-0.3-0.2c0-0.2,0.3-0.2,0.6-0.2c1.4,0,2.9,0.1,3.3,0.1c0.3,0,1.4-0.1,2.7-0.1
		C162.5,7.6,162.7,7.7,162.7,7.8z M176.3,7.6c-1.9,0-3.9,0.1-4.2,0.1c-0.2,0-2.1-0.1-3.6-0.1c-0.3,0-0.5,0.1-0.5,0.3
		c0,0.1,0.1,0.2,0.3,0.2c0.3,0,0.8,0,1.1,0.1c1,0.2,1.3,0.7,1.4,1.8c0.1,1,0.1,1.9,0.1,6.8v5.5c0,3,0,5.5-0.2,6.8
		c-0.1,0.9-0.3,1.6-0.9,1.7c-0.3,0.1-0.7,0.1-0.9,0.1c-0.2,0-0.3,0.1-0.3,0.2c0,0.2,0.2,0.3,0.5,0.3c0.5,0,1.2-0.1,1.8-0.1
		c0.7,0,1.2,0,1.3,0c0.2,0,1.2,0.1,2.6,0.2c1.4,0.1,3,0.2,4.4,0.2c5.3,0,8.2-2.2,9.5-3.6c1.8-1.9,3.4-4.9,3.4-8.9c0-3.7-1.5-6.4-3-8
		C185.1,7.3,179.4,7.6,176.3,7.6z M186.6,27.7c-1.9,1.9-4.6,2.9-7.5,2.9c-3.7,0-4.9-0.7-5.3-1.3c-0.3-0.3-0.3-1.6-0.3-2.4
		c0-0.6-0.1-3.5-0.1-6.8v-3.9c0-2.4,0-5.6,0-6.7c0-0.3,0.1-0.5,0.4-0.6c0.3-0.1,1.4-0.2,2-0.2c3.7,0,7.3,0.4,10.3,3.6
		c1.3,1.4,3,3.9,3,7.9C189.1,23.1,188.2,26.1,186.6,27.7z M216.1,4.8c0,0.1-0.1,0.2-0.3,0.2c-0.2,0-0.5,0-0.9,0.1
		c-1,0.2-1.2,0.8-1.3,2c-0.1,1.1-0.1,2.1-0.1,7.7v8.5c0,5.8,0,8-1.1,10.5c-0.7,1.8-2.3,3.5-5.2,5.4c-0.5,0.3-1,0.7-1.4,0.9
		c-0.1,0-0.1,0.1-0.2,0.1c-0.1,0-0.2-0.1-0.2-0.2c0-0.2,0.2-0.3,0.5-0.5c0.4-0.2,0.9-0.7,1.2-1c2.3-2.4,3.4-4.2,3.4-13.4V14.8
		c0-5.6,0-6.6-0.1-7.7c-0.1-1.2-0.4-1.8-1.5-2C208.6,5,208,5,207.7,5c-0.1,0-0.3-0.1-0.3-0.2c0-0.2,0.2-0.3,0.6-0.3
		c1.6,0,3.8,0.1,4,0.1s2.4-0.1,3.5-0.1C215.9,4.5,216.1,4.6,216.1,4.8z M233.3,7.2c-8.7,0-12.4,7.2-12.4,12.3
		c0,5.7,3.6,12.4,12.2,12.4c7.6,0,12.5-5.8,12.5-12.9C245.7,11.7,240.4,7.2,233.3,7.2z M234,30.6c-5.7,0-10.1-4.7-10.1-12
		c0-6.9,3.9-10.3,9.2-10.3c5,0,9.6,4.1,9.6,11.6C242.7,29,236.8,30.6,234,30.6z M274.4,31.1c0,0.2-0.2,0.3-0.5,0.3
		c-1.7,0-3.7-0.1-3.9-0.1c-0.2,0-2.1,0.1-3.1,0.1c-0.3,0-0.5-0.1-0.5-0.3c0-0.1,0.1-0.2,0.3-0.2c0.3,0,0.7-0.1,0.9-0.1
		c0.6-0.1,0.8-0.8,0.9-1.7c0.2-1.3,0.2-3.8,0.2-6.8V19c0-0.1-0.1-0.2-0.2-0.2h-13.3c-0.1,0-0.2,0-0.2,0.2v3.3c0,3,0,5.5,0.2,6.8
		c0.1,0.9,0.3,1.6,1.2,1.7c0.4,0.1,1.1,0.1,1.4,0.1c0.2,0,0.3,0.1,0.3,0.2c0,0.2-0.2,0.3-0.5,0.3c-1.7,0-3.7-0.1-3.9-0.1
		c-0.2,0-2.1,0.1-3.1,0.1c-0.3,0-0.5-0.1-0.5-0.3c0-0.1,0.1-0.2,0.3-0.2c0.3,0,0.7-0.1,0.9-0.1c0.6-0.1,0.8-0.8,0.9-1.7
		c0.2-1.3,0.2-3.8,0.2-6.8v-5.5c0-4.9,0-5.8-0.1-6.8c-0.1-1.1-0.3-1.6-1.4-1.8c-0.3-0.1-0.8-0.1-1.1-0.1c-0.1,0-0.3-0.1-0.3-0.2
		c0-0.2,0.2-0.3,0.5-0.3c1.4,0,3.4,0.1,3.6,0.1c0.2,0,2.1-0.1,3.1-0.1c0.3,0,0.5,0.1,0.5,0.3c0,0.1-0.1,0.2-0.3,0.2
		c-0.2,0-0.4,0-0.8,0.1c-0.8,0.2-1.1,0.7-1.2,1.8c-0.1,1-0.1,1.9-0.1,6.8v0.7c0,0.2,0.1,0.2,0.2,0.2h13.3c0.1,0,0.2,0,0.2-0.2v-0.7
		c0-4.9,0-5.8-0.1-6.8c-0.1-1.1-0.3-1.6-1.4-1.8c-0.3-0.1-0.8-0.1-1.1-0.1c-0.1,0-0.3-0.1-0.3-0.2c0-0.2,0.2-0.3,0.5-0.3
		c1.4,0,3.4,0.1,3.6,0.1c0.2,0,2.1-0.1,3.1-0.1c0.3,0,0.5,0.1,0.5,0.3c0,0.1-0.1,0.2-0.3,0.2c-0.2,0-0.4,0-0.8,0.1
		c-0.8,0.2-1.1,0.7-1.2,1.8c-0.1,1-0.1,1.9-0.1,6.8v5.5c0,3,0,5.5,0.2,6.8c0.1,0.9,0.3,1.6,1.2,1.7c0.4,0.1,1.1,0.1,1.4,0.1
		C274.3,31,274.4,31.1,274.4,31.1z M304.3,7.8c0,0.1-0.1,0.2-0.3,0.2c-0.2,0-0.4,0-0.8,0.1c-1,0.2-1.2,0.9-1.2,2.8L302,29.4
		c0,2.1-0.1,2.2-0.3,2.2c-0.3,0-0.6-0.3-2.3-2c-0.3-0.3-4.9-4.9-8.2-8.5c-3.6-3.9-7.2-7.9-8.2-9l0.4,15.1c0.1,2.6,0.4,3.4,1.2,3.6
		c0.6,0.2,1.3,0.2,1.6,0.2c0.2,0,0.3,0.1,0.3,0.2c0,0.2-0.2,0.3-0.6,0.3c-1.8,0-3.1-0.1-3.3-0.1c-0.3,0-1.6,0.1-3,0.1
		c-0.3,0-0.5,0-0.5-0.3c0-0.1,0.1-0.2,0.3-0.2c0.3,0,0.8,0,1.3-0.2c0.8-0.2,0.9-1.1,0.9-4l0-18c0-1.2,0.1-1.6,0.3-1.6s0.8,0.7,1.1,1
		c0.5,0.5,5.2,5.6,10,10.8c3.1,3.3,6.5,7.2,7.5,8.2l-0.3-16c0-2-0.3-2.7-1.2-3c-0.6-0.1-1.3-0.2-1.5-0.2c-0.2,0-0.3-0.1-0.3-0.2
		c0-0.2,0.3-0.2,0.6-0.2c1.4,0,2.9,0.1,3.3,0.1s1.4-0.1,2.7-0.1C304.1,7.6,304.3,7.7,304.3,7.8z"/>
	<path class="st1" d="M155.9,46.7c-1.4-0.5-3.3-1.5-4.2-3.8v4.2v0.4H67.1v0.8h80.6c1.4,0.5,3.3,1.5,4.2,3.8v-4.2v-0.4h84.5v-0.8
		H155.9z"/>
	<path class="st1" d="M60.2,60.9H58v-0.7h5.2v0.7h-2.2v5.9h-0.7V60.9z M69.4,60.2h0.7v2.9H74v-2.9h0.7v6.6H74v-3h-3.8v3h-0.7V60.2z
		 M81.5,60.2h4.8v0.7h-4v2.3h3.6v0.7h-3.6v2.3h4.1v0.7h-4.8V60.2z M100.4,60.2h2.5c0.4,0,0.7,0,1,0.1c0.3,0.1,0.6,0.2,0.8,0.4
		c0.2,0.2,0.4,0.4,0.5,0.7c0.1,0.3,0.2,0.5,0.2,0.9v0c0,0.4-0.1,0.7-0.2,0.9c-0.1,0.3-0.3,0.5-0.6,0.7c-0.2,0.2-0.5,0.3-0.8,0.4
		c-0.3,0.1-0.6,0.1-1,0.1h-1.6v2.3h-0.7V60.2z M102.7,63.8c0.3,0,0.5,0,0.7-0.1c0.2-0.1,0.4-0.2,0.6-0.3c0.2-0.1,0.3-0.3,0.4-0.5
		c0.1-0.2,0.1-0.4,0.1-0.6v0c0-0.5-0.2-0.8-0.5-1.1c-0.3-0.2-0.8-0.4-1.3-0.4h-1.7v2.9H102.7z M111.5,60.2h4.8v0.7h-4v2.3h3.6v0.7
		h-3.6v2.3h4.1v0.7h-4.8V60.2z M125.8,66.9c-0.5,0-1-0.1-1.4-0.3c-0.4-0.2-0.8-0.4-1.1-0.7c-0.3-0.3-0.5-0.7-0.7-1.1
		c-0.2-0.4-0.2-0.8-0.2-1.3v0c0-0.5,0.1-0.9,0.2-1.3c0.2-0.4,0.4-0.8,0.7-1.1c0.3-0.3,0.6-0.6,1.1-0.7c0.4-0.2,0.9-0.3,1.4-0.3
		c0.5,0,1,0.1,1.4,0.3c0.4,0.2,0.8,0.4,1.1,0.7c0.3,0.3,0.5,0.7,0.7,1.1c0.2,0.4,0.2,0.8,0.2,1.3c0,0,0,0,0,0c0,0.5-0.1,0.9-0.2,1.3
		c-0.2,0.4-0.4,0.8-0.7,1.1c-0.3,0.3-0.6,0.6-1.1,0.7C126.7,66.8,126.3,66.9,125.8,66.9z M125.8,66.2c0.4,0,0.7-0.1,1-0.2
		c0.3-0.1,0.6-0.3,0.8-0.6s0.4-0.5,0.5-0.9c0.1-0.3,0.2-0.7,0.2-1.1v0c0-0.4-0.1-0.7-0.2-1.1c-0.1-0.3-0.3-0.6-0.5-0.9
		c-0.2-0.2-0.5-0.4-0.8-0.6c-0.3-0.1-0.7-0.2-1-0.2c-0.4,0-0.7,0.1-1,0.2c-0.3,0.1-0.6,0.3-0.8,0.6c-0.2,0.2-0.4,0.5-0.5,0.9
		c-0.1,0.3-0.2,0.7-0.2,1.1v0c0,0.4,0.1,0.7,0.2,1.1c0.1,0.3,0.3,0.6,0.5,0.9c0.2,0.2,0.5,0.4,0.8,0.6
		C125.1,66.2,125.4,66.2,125.8,66.2z M135.6,60.2h2.5c0.4,0,0.7,0,1,0.1c0.3,0.1,0.6,0.2,0.8,0.4c0.2,0.2,0.4,0.4,0.5,0.7
		c0.1,0.3,0.2,0.5,0.2,0.9v0c0,0.4-0.1,0.7-0.2,0.9c-0.1,0.3-0.3,0.5-0.6,0.7c-0.2,0.2-0.5,0.3-0.8,0.4c-0.3,0.1-0.6,0.1-1,0.1h-1.6
		v2.3h-0.7V60.2z M138,63.8c0.3,0,0.5,0,0.7-0.1c0.2-0.1,0.4-0.2,0.6-0.3c0.2-0.1,0.3-0.3,0.4-0.5c0.1-0.2,0.1-0.4,0.1-0.6v0
		c0-0.5-0.2-0.8-0.5-1.1c-0.3-0.2-0.8-0.4-1.3-0.4h-1.7v2.9H138z M146.7,60.2h0.7v5.9h3.7v0.7h-4.4V60.2z M157.5,60.2h4.8v0.7h-4
		v2.3h3.6v0.7h-3.6v2.3h4.1v0.7h-4.8V60.2z M167.8,62c0.2-0.1,0.4-0.2,0.5-0.3c0.1-0.1,0.1-0.3,0.1-0.5h-0.3v-1h0.9v0.8
		c0,0.4-0.1,0.7-0.3,0.9c-0.2,0.2-0.4,0.3-0.8,0.4L167.8,62z M177.2,66.9c-0.5,0-1-0.1-1.4-0.3c-0.4-0.2-0.9-0.4-1.2-0.8l0.5-0.5
		c0.3,0.3,0.7,0.5,1,0.7s0.8,0.2,1.2,0.2c0.4,0,0.8-0.1,1.1-0.3c0.3-0.2,0.4-0.5,0.4-0.8v0c0-0.2,0-0.3-0.1-0.4
		c-0.1-0.1-0.1-0.2-0.3-0.3c-0.1-0.1-0.3-0.2-0.5-0.3c-0.2-0.1-0.5-0.2-0.9-0.2c-0.4-0.1-0.7-0.2-1-0.3c-0.3-0.1-0.5-0.2-0.7-0.4
		c-0.2-0.2-0.3-0.3-0.4-0.5c-0.1-0.2-0.1-0.4-0.1-0.7v0c0-0.3,0.1-0.5,0.2-0.7s0.3-0.4,0.5-0.6c0.2-0.2,0.4-0.3,0.7-0.4
		s0.6-0.1,0.9-0.1c0.5,0,0.9,0.1,1.3,0.2c0.4,0.1,0.7,0.3,1,0.6l-0.4,0.6c-0.3-0.3-0.6-0.4-0.9-0.5c-0.3-0.1-0.6-0.2-1-0.2
		c-0.4,0-0.8,0.1-1,0.3c-0.3,0.2-0.4,0.5-0.4,0.8v0c0,0.2,0,0.3,0.1,0.4c0.1,0.1,0.1,0.2,0.3,0.3c0.1,0.1,0.3,0.2,0.5,0.3
		c0.2,0.1,0.5,0.2,0.9,0.2c0.7,0.2,1.3,0.4,1.6,0.7c0.3,0.3,0.5,0.7,0.5,1.2v0c0,0.3-0.1,0.5-0.2,0.8c-0.1,0.2-0.3,0.4-0.5,0.6
		c-0.2,0.2-0.4,0.3-0.7,0.4C177.8,66.9,177.5,66.9,177.2,66.9z M195.8,66.9c-0.5,0-1-0.1-1.4-0.3c-0.4-0.2-0.9-0.4-1.2-0.8l0.5-0.5
		c0.3,0.3,0.7,0.5,1,0.7s0.8,0.2,1.2,0.2c0.4,0,0.8-0.1,1.1-0.3c0.3-0.2,0.4-0.5,0.4-0.8v0c0-0.2,0-0.3-0.1-0.4
		c-0.1-0.1-0.1-0.2-0.3-0.3c-0.1-0.1-0.3-0.2-0.5-0.3c-0.2-0.1-0.5-0.2-0.9-0.2c-0.4-0.1-0.7-0.2-1-0.3c-0.3-0.1-0.5-0.2-0.7-0.4
		c-0.2-0.2-0.3-0.3-0.4-0.5c-0.1-0.2-0.1-0.4-0.1-0.7v0c0-0.3,0.1-0.5,0.2-0.7s0.3-0.4,0.5-0.6c0.2-0.2,0.4-0.3,0.7-0.4
		s0.6-0.1,0.9-0.1c0.5,0,0.9,0.1,1.3,0.2c0.4,0.1,0.7,0.3,1,0.6l-0.4,0.6c-0.3-0.3-0.6-0.4-0.9-0.5c-0.3-0.1-0.6-0.2-1-0.2
		c-0.4,0-0.8,0.1-1,0.3c-0.3,0.2-0.4,0.5-0.4,0.8v0c0,0.2,0,0.3,0.1,0.4c0.1,0.1,0.1,0.2,0.3,0.3c0.1,0.1,0.3,0.2,0.5,0.3
		c0.2,0.1,0.5,0.2,0.9,0.2c0.7,0.2,1.3,0.4,1.6,0.7c0.3,0.3,0.5,0.7,0.5,1.2v0c0,0.3-0.1,0.5-0.2,0.8c-0.1,0.2-0.3,0.4-0.5,0.6
		c-0.2,0.2-0.4,0.3-0.7,0.4C196.4,66.9,196.1,66.9,195.8,66.9z M204.4,60.2h0.7v2.9h3.8v-2.9h0.7v6.6h-0.7v-3h-3.8v3h-0.7V60.2z
		 M218.9,60.2h0.7l3,6.6h-0.8l-0.8-1.7h-3.6l-0.8,1.7h-0.8L218.9,60.2z M220.7,64.4l-1.5-3.4l-1.5,3.4H220.7z M228.7,60.2h2.8
		c0.4,0,0.8,0.1,1.1,0.2c0.3,0.1,0.6,0.3,0.8,0.5c0.2,0.2,0.3,0.4,0.4,0.6c0.1,0.2,0.1,0.5,0.1,0.7v0c0,0.3,0,0.5-0.1,0.7
		c-0.1,0.2-0.2,0.4-0.4,0.6c-0.2,0.2-0.3,0.3-0.6,0.4c-0.2,0.1-0.5,0.2-0.7,0.2l2,2.7h-0.9l-1.9-2.6h0h-1.9v2.6h-0.7V60.2z
		 M231.5,63.6c0.2,0,0.5,0,0.7-0.1c0.2-0.1,0.4-0.2,0.5-0.3c0.2-0.1,0.3-0.3,0.4-0.4c0.1-0.2,0.1-0.4,0.1-0.6v0c0-0.4-0.1-0.7-0.4-1
		c-0.3-0.2-0.7-0.3-1.2-0.3h-2v2.7H231.5z M240.4,60.2h0.7v3.9l3.8-3.9h1l-2.8,2.9l2.9,3.7h-0.9l-2.5-3.2l-1.4,1.4v1.8h-0.7V60.2z"
		/>
</g>
</svg>
