<?xml version="1.0" encoding="utf-8"?>
<!-- Generator: Adobe Illustrator 21.0.2, SVG Export Plug-In . SVG Version: 6.00 Build 0)  -->
<svg version="1.1" id="Layer_1" xmlns="http://www.w3.org/2000/svg" xmlns:xlink="http://www.w3.org/1999/xlink" x="0px" y="0px"
	 viewBox="0 0 16 16" style="enable-background:new 0 0 16 16;" xml:space="preserve">
<style type="text/css">
	.st0{fill:#C92228;}
</style>
<path class="st0" d="M8,1.1C4.2,1.1,1.1,4.2,1.1,8c0,2.9,1.8,5.4,4.4,6.5c-0.1-0.5-0.1-1.4,0-2C5.6,11.9,6.3,9,6.3,9S6.1,8.6,6.1,8
	c0-1,0.6-1.7,1.3-1.7c0.6,0,0.9,0.4,0.9,1c0,0.6-0.4,1.5-0.6,2.3c-0.2,0.7,0.3,1.3,1,1.3c1.2,0,2.2-1.3,2.2-3.2
	C10.9,6,9.7,4.8,8,4.8c-2,0-3.1,1.5-3.1,3c0,0.6,0.2,1.2,0.5,1.6c0.1,0.1,0.1,0.1,0,0.2c-0.1,0.2-0.2,0.7-0.2,0.8
	c0,0.1-0.1,0.2-0.2,0.1c-0.9-0.4-1.4-1.7-1.4-2.7c0-2.2,1.6-4.2,4.6-4.2c2.4,0,4.3,1.7,4.3,4c0,2.4-1.5,4.3-3.6,4.3
	c-0.7,0-1.4-0.4-1.6-0.8c0,0-0.3,1.3-0.4,1.6c-0.2,0.6-0.6,1.4-0.9,1.8c0.7,0.2,1.3,0.3,2.1,0.3c3.8,0,6.9-3.1,6.9-6.9
	C14.9,4.2,11.8,1.1,8,1.1L8,1.1z"/>
</svg>
